<svg xmlns="http://www.w3.org/2000/svg" width="48" height="48" fill="none" xmlns:v="https://vecta.io/nano"><path fill-opacity=".01" fill="#fff" d="M0 0h48v48H0z"/><g stroke-linejoin="round" stroke-width="4" stroke="#000"><path stroke-linecap="round" d="M4 24V4h40v20"/><path fill="#2f88ff" d="M10 44a6 6 0 1 0 0-12 6 6 0 1 0 0 12z" fill-rule="evenodd"/><path stroke-linecap="round" d="M36 12L14.243 42.243a6 6 0 0 1-8.485 0"/><path fill="#bf0000" d="M38 44a6 6 0 1 0 0-12 6 6 0 1 0 0 12z" fill-rule="evenodd"/><path stroke-linecap="round" d="M42.243 42.243a6 6 0 0 1-8.485 0C32.195 40.681 27.61 33.266 12 12"/></g><circle stroke-width="2" stroke="#fff" cy="37.938" cx="38.063" fill="#fff" r=".714"/></svg>